<svg width="165" height="40" viewBox="0 0 165 40" fill="none" xmlns="http://www.w3.org/2000/svg">
<path d="M52.7536 10.2329L55.877 10.2508V29.9729H52.6108L52.2181 27.5812C51.3138 28.4974 50.2489 29.2114 49.0233 29.723C47.7978 30.2227 46.477 30.4726 45.0611 30.4726C43.1335 30.4726 41.3844 30.0264 39.8137 29.134C38.2431 28.2297 37.0116 26.9863 36.1192 25.4038C35.2268 23.8093 34.7806 22.0424 34.7806 20.1029C34.7806 18.1515 35.2268 16.3905 36.1192 14.8199C37.0116 13.2374 38.2431 11.9999 39.8137 11.1075C41.3844 10.2151 43.1335 9.76888 45.0611 9.76888C46.4889 9.76888 47.8216 10.0247 49.059 10.5363C50.2965 11.048 51.3674 11.7738 52.2717 12.7138L52.7536 10.2329ZM40.7418 24.7434C41.9674 25.969 43.5083 26.5817 45.3645 26.5817C47.2207 26.5817 48.7556 25.969 49.9693 24.7434C51.1948 23.5059 51.8076 21.9591 51.8076 20.1029C51.8076 18.2467 51.1948 16.7058 49.9693 15.4803C48.7556 14.2547 47.2207 13.6419 45.3645 13.6419C43.5083 13.6419 41.9674 14.2606 40.7418 15.4981C39.5163 16.7237 38.9035 18.2586 38.9035 20.1029C38.9035 21.9591 39.5163 23.5059 40.7418 24.7434ZM83.7378 9.80458C85.8082 9.80458 87.4859 10.5185 88.7709 11.9463C90.0679 13.3742 90.7164 15.2066 90.7164 17.4435V29.9907H86.6649V18.443C86.6649 16.8486 86.3317 15.6171 85.6654 14.7485C84.9991 13.8799 84.0531 13.4456 82.8275 13.4456C81.5068 13.4456 80.4002 13.987 79.5078 15.0698C78.6273 16.1525 78.187 17.5268 78.187 19.1927V29.9907H74.2248V18.443C74.2248 16.8486 73.8916 15.6171 73.2253 14.7485C72.5709 13.8799 71.6249 13.4456 70.3875 13.4456C69.0667 13.4456 67.9601 13.987 67.0677 15.0698C66.1753 16.1525 65.7291 17.5268 65.7291 19.1927V29.9907H61.6776V10.2508H64.5511L65.2472 12.8031C65.9968 11.8631 66.9071 11.1313 67.978 10.6077C69.0607 10.0723 70.1971 9.80458 71.3869 9.80458C72.7077 9.80458 73.8797 10.1139 74.903 10.7327C75.9382 11.3395 76.7414 12.1843 77.3125 13.2671C78.0383 12.1962 78.9664 11.3514 80.0968 10.7327C81.2272 10.1139 82.4408 9.80458 83.7378 9.80458ZM114.99 20.1743C114.99 20.5551 114.96 20.9953 114.9 21.4951H98.8729C99.1228 23.0895 99.7891 24.3507 100.872 25.2788C101.955 26.2069 103.305 26.671 104.923 26.671C106.089 26.671 107.131 26.4152 108.047 25.9035C108.975 25.3919 109.701 24.6839 110.224 23.7796H114.508C113.723 25.8619 112.479 27.4979 110.778 28.6878C109.076 29.8777 107.125 30.4726 104.923 30.4726C102.044 30.4726 99.6345 29.485 97.695 27.5098C95.7555 25.5228 94.7857 23.0597 94.7857 20.1208C94.7857 18.1813 95.226 16.4203 96.1065 14.8377C96.987 13.2552 98.2007 12.0177 99.7475 11.1253C101.294 10.221 103.02 9.76888 104.923 9.76888C106.887 9.76888 108.642 10.2389 110.189 11.1789C111.735 12.107 112.919 13.3623 113.74 14.9448C114.573 16.5154 114.99 18.2586 114.99 20.1743ZM104.923 13.4277C103.412 13.4277 102.127 13.8561 101.068 14.7128C100.009 15.5695 99.3132 16.7356 98.98 18.211H110.92C110.552 16.7118 109.832 15.5398 108.761 14.6949C107.702 13.8501 106.423 13.4277 104.923 13.4277Z" fill="black"/>
<path d="M160.669 10.2066L163.792 10.2244V29.9465H160.526L160.133 27.5549C159.229 28.4711 158.164 29.185 156.938 29.6966C155.713 30.1964 154.392 30.4463 152.976 30.4463C151.049 30.4463 149.299 30.0001 147.729 29.1076C146.158 28.2033 144.927 26.9599 144.034 25.3774C143.142 23.783 142.696 22.016 142.696 20.0765C142.696 18.1251 143.142 16.3641 144.034 14.7935C144.927 13.211 146.158 11.9735 147.729 11.0811C149.299 10.1887 151.049 9.74251 152.976 9.74251C154.404 9.74251 155.737 9.99834 156.974 10.51C158.212 11.0216 159.282 11.7474 160.187 12.6874L160.669 10.2066ZM148.657 24.717C149.883 25.9426 151.423 26.5554 153.28 26.5554C155.136 26.5554 156.671 25.9426 157.884 24.717C159.11 23.4796 159.723 21.9327 159.723 20.0765C159.723 18.2203 159.11 16.6795 157.884 15.4539C156.671 14.2283 155.136 13.6155 153.28 13.6155C151.423 13.6155 149.883 14.2343 148.657 15.4717C147.431 16.6973 146.819 18.2322 146.819 20.0765C146.819 21.9327 147.431 23.4796 148.657 24.717Z" fill="black"/>
<path d="M30 10.4688H26.8555L26.25 13.75L26.2774 27.2769V28.1872C26.2774 30.0315 25.7241 31.4891 24.6176 32.5599C23.5229 33.6427 22.1069 34.1841 20.3697 34.1841C19.0847 34.1841 17.9245 33.8867 16.8894 33.2917C15.8661 32.6968 15.17 31.8758 14.8011 30.8287H10.7496C11.2494 32.9943 12.35 34.6898 14.0515 35.9154C15.7649 37.1528 17.8829 37.7716 20.4054 37.7716C23.4634 37.7716 25.8669 36.8673 27.616 35.0587C29.3771 33.262 30 30.6532 30 27.5V10.4688Z" fill="black"/>
<path d="M-8.74228e-07 20C-9.57713e-07 17.3736 0.517314 14.7728 1.52241 12.3463C2.5275 9.91982 4.00069 7.71504 5.85786 5.85787C7.71504 4.00069 9.91982 2.5275 12.3463 1.52241C14.7728 0.517318 17.3736 3.05527e-06 20 2.94047e-06L20 20L-8.74228e-07 20Z" fill="#004EED"/>
<path d="M20 10C25.5228 10 30 14.4772 30 20C30 25.5228 25.5228 30 20 30C14.4772 30 10 25.5228 10 20C10 14.4772 14.4772 10 20 10ZM20 26C23.3137 26 26 23.3137 26 20C26 16.6863 23.3137 14 20 14C16.6863 14 14 16.6863 14 20C14 23.3137 16.6863 26 20 26Z" fill="black"/>
<path d="M138.75 10.4688H135.615L135 13.75L135.027 27.2769V28.1872C135.027 30.0315 134.474 31.4891 133.368 32.5599C132.273 33.6427 130.857 34.1841 129.12 34.1841C127.835 34.1841 126.675 33.8866 125.639 33.2917C124.616 32.6968 123.92 31.8758 123.551 30.8287H119.5C119.999 32.9942 121.1 34.6898 122.802 35.9154C124.515 37.1528 126.633 37.7716 129.155 37.7716C132.213 37.7716 134.617 36.8673 136.366 35.0587C138.127 33.262 138.75 30.6532 138.75 27.5V10.4688Z" fill="black"/>
<path d="M128.75 10C134.273 10 138.75 14.4772 138.75 20C138.75 25.5228 134.273 30 128.75 30C123.227 30 118.75 25.5228 118.75 20C118.75 14.4772 123.227 10 128.75 10ZM128.75 26C132.064 26 134.75 23.3137 134.75 20C134.75 16.6863 132.064 14 128.75 14C125.436 14 122.75 16.6863 122.75 20C122.75 23.3137 125.436 26 128.75 26Z" fill="black"/>
<path fill-rule="evenodd" clip-rule="evenodd" d="M20 10C14.4772 10 10 14.4772 10 20H14C14 16.6863 16.6863 14 20 14V10Z" fill="white"/>
</svg>
