<svg width="165" height="40" viewBox="0 0 165 40" fill="none" xmlns="http://www.w3.org/2000/svg">
<path d="M-8.74228e-07 20C-9.57713e-07 17.3736 0.517314 14.7728 1.52241 12.3463C2.5275 9.91982 4.00069 7.71504 5.85786 5.85787C7.71504 4.00069 9.91982 2.5275 12.3463 1.52241C14.7728 0.517318 17.3736 3.05527e-06 20 2.94047e-06L20 20L-8.74228e-07 20Z" fill="white"/>
<path fill-rule="evenodd" clip-rule="evenodd" d="M163.792 10.2246L160.669 10.2067L160.187 12.6876C159.283 11.7476 158.212 11.0218 156.974 10.5101C155.737 9.9985 154.404 9.74268 152.976 9.74268C151.049 9.74268 149.3 10.1889 147.729 11.0813C146.158 11.9737 144.927 13.2111 144.034 14.7937C143.142 16.3643 142.696 18.1253 142.696 20.0767C142.696 22.0162 143.142 23.7831 144.034 25.3776C144.927 26.9601 146.158 28.2035 147.729 29.1078C149.3 30.0002 151.049 30.4464 152.976 30.4464C154.392 30.4464 155.713 30.1965 156.939 29.6968C158.164 29.1852 159.229 28.4712 160.133 27.555L160.526 29.9467H163.792V10.2246ZM153.28 26.5555C151.423 26.5555 149.883 25.9428 148.657 24.7172C147.431 23.4797 146.819 21.9329 146.819 20.0767C146.819 18.2324 147.431 16.6975 148.657 15.4719C149.883 14.2344 151.423 13.6157 153.28 13.6157C155.136 13.6157 156.671 14.2285 157.884 15.4541C159.11 16.6796 159.723 18.2205 159.723 20.0767C159.723 21.9329 159.11 23.4797 157.884 24.7172C156.671 25.9428 155.136 26.5555 153.28 26.5555Z" fill="white"/>
<path fill-rule="evenodd" clip-rule="evenodd" d="M52.7535 10.2331L55.8769 10.2509V29.973H52.6107L52.2181 27.5814C51.3138 28.4976 50.2488 29.2115 49.0233 29.7232C47.7977 30.2229 46.4769 30.4728 45.061 30.4728C43.1334 30.4728 41.3843 30.0266 39.8137 29.1342C38.243 28.2299 37.0115 26.9865 36.1191 25.4039C35.2267 23.8095 34.7805 22.0426 34.7805 20.1031C34.7805 18.1517 35.2267 16.3907 36.1191 14.82C37.0115 13.2375 38.243 12 39.8137 11.1076C41.3843 10.2152 43.1334 9.76904 45.061 9.76904C46.4888 9.76904 47.8215 10.0249 49.059 10.5365C50.2964 11.0482 51.3673 11.774 52.2716 12.714L52.7535 10.2331ZM40.7418 24.7436C41.9673 25.9691 43.5082 26.5819 45.3644 26.5819C47.2206 26.5819 48.7555 25.9691 49.9692 24.7436C51.1948 23.5061 51.8076 21.9593 51.8076 20.1031C51.8076 18.2469 51.1948 16.706 49.9692 15.4804C48.7555 14.2549 47.2206 13.6421 45.3644 13.6421C43.5082 13.6421 41.9673 14.2608 40.7418 15.4983C39.5162 16.7238 38.9034 18.2588 38.9034 20.1031C38.9034 21.9593 39.5162 23.5061 40.7418 24.7436Z" fill="white"/>
<path d="M83.7377 9.80474C85.8081 9.80474 87.4858 10.5187 88.7709 11.9465C90.0678 13.3743 90.7163 15.2067 90.7163 17.4437V29.9909H86.6648V18.4432C86.6648 16.8488 86.3316 15.6173 85.6653 14.7486C84.999 13.88 84.053 13.4457 82.8275 13.4457C81.5067 13.4457 80.4001 13.9871 79.5077 15.0699C78.6272 16.1527 78.187 17.527 78.187 19.1928V29.9909H74.2247V18.4432C74.2247 16.8488 73.8915 15.6173 73.2252 14.7486C72.5708 13.88 71.6248 13.4457 70.3874 13.4457C69.0666 13.4457 67.96 13.9871 67.0676 15.0699C66.1752 16.1527 65.729 17.527 65.729 19.1928V29.9909H61.6775V10.2509H64.5511L65.2471 12.8032C65.9968 11.8632 66.907 11.1314 67.9779 10.6079C69.0607 10.0725 70.197 9.80474 71.3869 9.80474C72.7076 9.80474 73.8796 10.1141 74.9029 10.7328C75.9381 11.3397 76.7413 12.1845 77.3124 13.2673C78.0382 12.1964 78.9663 11.3516 80.0967 10.7328C81.2271 10.1141 82.4408 9.80474 83.7377 9.80474Z" fill="white"/>
<path fill-rule="evenodd" clip-rule="evenodd" d="M114.9 21.4952C114.96 20.9955 114.99 20.5552 114.99 20.1745C114.99 18.2588 114.573 16.5156 113.74 14.945C112.919 13.3625 111.735 12.1071 110.189 11.179C108.642 10.239 106.887 9.76904 104.923 9.76904C103.02 9.76904 101.294 10.2212 99.7474 11.1255C98.2006 12.0179 96.9869 13.2554 96.1064 14.8379C95.2259 16.4204 94.7857 18.1814 94.7857 20.1209C94.7857 23.0599 95.7554 25.5229 97.6949 27.51C99.6344 29.4852 102.044 30.4728 104.923 30.4728C107.125 30.4728 109.076 29.8778 110.778 28.688C112.479 27.4981 113.722 25.862 114.508 23.7798H110.224C109.701 24.6841 108.975 25.392 108.047 25.9037C107.131 26.4153 106.089 26.6711 104.923 26.6711C103.305 26.6711 101.955 26.2071 100.872 25.279C99.7891 24.3509 99.1227 23.0896 98.8729 21.4952H114.9ZM101.068 14.713C102.127 13.8562 103.412 13.4279 104.923 13.4279C106.423 13.4279 107.702 13.8503 108.761 14.6951C109.832 15.5399 110.551 16.7119 110.92 18.2112H98.9799C99.3131 16.7357 100.009 15.5697 101.068 14.713Z" fill="white"/>
<path fill-rule="evenodd" clip-rule="evenodd" d="M26.4991 12.3996C24.7512 10.9036 22.4811 10 20 10C14.4772 10 10 14.4772 10 20C10 25.5228 14.4772 30 20 30C22.3775 30 24.5611 29.1703 26.2773 27.7847V28.1872C26.2773 30.0315 25.724 31.4891 24.6174 32.5599C23.5228 33.6427 22.1068 34.1841 20.3696 34.1841C19.0846 34.1841 17.9244 33.8867 16.8892 33.2917C15.866 32.6968 15.1699 31.8758 14.801 30.8287H10.7495C11.2493 32.9942 12.3499 34.6898 14.0514 35.9154C15.7648 37.1528 17.8828 37.7716 20.4053 37.7716C23.4633 37.7716 25.8668 36.8673 27.6159 35.0587C29.3769 33.262 29.9999 30.6532 29.9999 27.5V20.0484L30 20L29.9999 19.9516V10.4687H26.8554L26.4991 12.3996ZM26 20C26 23.3137 23.3137 26 20 26C16.6863 26 14 23.3137 14 20C14 16.6863 16.6863 14 20 14C23.3137 14 26 16.6863 26 20Z" fill="white"/>
<path fill-rule="evenodd" clip-rule="evenodd" d="M128.75 10C131.233 10 133.504 10.9048 135.253 12.4028L135.615 10.4687H138.75V27.5C138.75 30.6532 138.127 33.262 136.366 35.0587C134.617 36.8673 132.214 37.7716 129.156 37.7716C126.633 37.7716 124.515 37.1528 122.802 35.9154C121.1 34.6898 120 32.9942 119.5 30.8287H123.551C123.92 31.8758 124.616 32.6968 125.639 33.2917C126.675 33.8866 127.835 34.1841 129.12 34.1841C130.857 34.1841 132.273 33.6427 133.368 32.5599C134.474 31.4891 135.028 30.0315 135.028 28.1872V27.7845C133.311 29.1703 131.128 30 128.75 30C123.227 30 118.75 25.5228 118.75 20C118.75 14.4772 123.227 10 128.75 10ZM128.75 26C132.064 26 134.75 23.3137 134.75 20C134.75 16.6863 132.064 14 128.75 14C125.436 14 122.75 16.6863 122.75 20C122.75 23.3137 125.436 26 128.75 26Z" fill="white"/>
<path fill-rule="evenodd" clip-rule="evenodd" d="M20 10C14.4772 10 10 14.4772 10 20H14C14 16.6863 16.6863 14 20 14V10Z" fill="#1B1B1C"/>
</svg>
