<svg version="1.0" xmlns="http://www.w3.org/2000/svg"
 width="50px" height="50px" viewBox="0 0 642.000000 748.000000"
 preserveAspectRatio="xMidYMid meet">
<metadata>
Created by potrace 1.14, written by Peter Selinger 2001-2017
</metadata>
<g transform="translate(0.000000,748.000000) scale(0.100000,-0.100000)"
fill="#DA0C0C" stroke="none">
<path d="M5538 7225 c-48 -8 -100 -21 -115 -29 -43 -22 -324 -227 -457 -335
-428 -342 -780 -694 -1111 -1106 -646 -805 -1072 -1712 -1259 -2674 l-32 -164
-86 114 c-146 193 -354 386 -581 538 -105 70 -152 91 -342 157 -106 37 -115
38 -245 39 -115 0 -146 -3 -205 -23 -143 -47 -215 -133 -215 -257 0 -93 18
-120 330 -495 480 -578 759 -1027 1008 -1623 39 -92 82 -187 95 -210 40 -68
107 -137 191 -196 84 -60 83 -57 19 -114 -39 -34 -47 -56 -33 -91 22 -60 172
-90 368 -76 189 14 344 63 409 129 29 29 52 78 31 65 -6 -4 -5 3 1 15 7 11 9
21 6 21 -3 0 10 24 30 53 43 63 90 182 110 275 8 38 21 140 30 228 75 773 214
1442 441 2129 327 989 820 1882 1435 2602 74 86 245 270 380 409 207 211 252
262 279 317 38 78 43 142 15 200 -19 41 -81 90 -99 79 -6 -3 -30 -8 -54 -9
-58 -4 -82 -18 -242 -136 -559 -414 -1063 -901 -1545 -1497 -96 -119 -155
-179 -155 -159 0 9 7 22 15 29 8 7 15 19 15 26 0 35 214 347 374 544 306 376
725 782 1092 1057 140 105 175 130 213 155 l45 28 -35 -1 c-18 -1 -73 -7 -121
-14z m-3905 -3550 c25 -7 60 -21 78 -31 l34 -18 -45 -7 c-25 -4 -67 -8 -93 -8
-56 -1 -174 -24 -270 -53 -63 -19 -69 -19 -92 -4 -46 31 -28 84 37 111 87 36
251 40 351 10z"/>
</g>
</svg>
