<svg width="62" height="62" fill="none" xmlns="http://www.w3.org/2000/svg"><g clip-path="url(#clip0)"><path d="M44.849 4.63a5.312 5.312 0 00-2.056-3.536 5.35 5.35 0 00-7.491 1.008C33.941 3.887 32.129 9.008 31 12.466c-1.129-3.458-2.94-8.579-4.302-10.364a5.35 5.35 0 00-7.491-1.008A5.312 5.312 0 0017.15 4.63a5.304 5.304 0 001.047 3.954c2.022 2.653 11.24 7.805 12.284 8.384.162.09.34.134.518.134.177 0 .347-.058.505-.145l.013.01c1.045-.578 10.262-5.73 12.284-8.383a5.304 5.304 0 001.047-3.954zM19.898 7.288a3.185 3.185 0 01-.628-2.372 3.185 3.185 0 011.233-2.123 3.193 3.193 0 011.94-.655c.968 0 1.925.434 2.555 1.26 1.165 1.529 3 6.737 4.17 10.356-3.336-1.957-8.112-4.946-9.27-6.466zm22.204 0c-1.159 1.52-5.936 4.51-9.27 6.466 1.17-3.619 3.004-8.827 4.17-10.355a3.204 3.204 0 012.554-1.261c.678 0 1.361.214 1.94.655a3.182 3.182 0 011.233 2.123 3.185 3.185 0 01-.627 2.372z" fill="#FFDC64"/><path d="M52.38 62H9.62a2.138 2.138 0 01-2.138-2.139V19.24c0-1.18.957-2.138 2.138-2.138h42.76c1.18 0 2.138.957 2.138 2.138v40.62a2.138 2.138 0 01-2.138 2.138z" fill="#E22121"/><path d="M12.827 51.31V17.102H9.62c-1.18 0-2.138.957-2.138 2.138v40.621A2.14 2.14 0 009.62 62h42.76a2.14 2.14 0 002.138-2.139H21.379a8.552 8.552 0 01-8.552-8.551z" fill="#D21111"/><path d="M31 18.17c-.135 0-.27-.025-.397-.075L14.568 11.68a1.07 1.07 0 01.794-1.986L31 15.951l15.638-6.256a1.07 1.07 0 01.793 1.985l-16.034 6.415a1.07 1.07 0 01-.397.076z" fill="#FFC850"/><path d="M7.482 53.448l8.552 8.551h9.621L7.482 43.827v9.62zm0-19.242l27.794 27.793h9.62L7.483 24.585v9.62zm47.036 18.173L19.24 17.102H9.62l44.27 44.271a2.13 2.13 0 00.627-1.511v-7.483zm0-19.242L38.483 17.102h-9.621l25.656 25.656v-9.621zm0-13.897c0-1.18-.958-2.138-2.138-2.138h-4.276l6.414 6.414V19.24z" fill="#F23737"/><path d="M33.138 59.862l2.138 2.137h9.62l-2.137-2.137h-9.621zM12.827 29.93l-5.345-5.345v9.62l5.345 5.346V29.93zm8.552 29.931a8.552 8.552 0 01-8.552-8.551v-2.138l-5.345-5.345v9.62L16.034 62h9.621l-2.138-2.138h-2.138z" fill="#DF0C0C"/><path d="M34.206 17.102h-6.414V62h6.414V17.102z" fill="#FFDC64"/><path d="M34.206 59.862h-6.414V62h6.414v-2.138z" fill="#FFC850"/><path d="M12.827 17.102H9.62l3.207 3.207v-3.207zm41.065 44.271a2.134 2.134 0 00.626-1.512H52.38l1.511 1.512z" fill="#DF0C0C"/></g><defs><clipPath id="clip0"><path fill="#fff" d="M0 0h62v62H0z"/></clipPath></defs></svg>