<svg width="62" height="62" fill="none" xmlns="http://www.w3.org/2000/svg"><path d="M18.712 38.152l-8.45 18.826a.915.915 0 00.944 1.283l4.734-.566 2.729 3.913a.915.915 0 001.585-.149L28.81 42.4l-10.097-4.247z" fill="#E22121"/><path d="M43.288 38.152l8.45 18.826a.915.915 0 01-.944 1.283l-4.734-.566-2.729 3.913a.915.915 0 01-1.586-.149L33.19 42.4l10.098-4.247z" fill="#C10A0A"/><path d="M51.738 56.978l-5.946-13.247-.199-.442s-1.178.442-2.07 2.085c-.427.788-1.09 1.367-1.529 1.694a.684.684 0 00-.217.83l4.398 9.812 4.619.552a.915.915 0 00.944-1.284z" fill="#E22121"/><path d="M18.712 38.152l-8.45 18.826a.915.915 0 00.944 1.283l4.619-.552 4.26-9.502c.225-.504.799-.713 1.321-.535a4.576 4.576 0 002.204.191l2.559-.402.026-.001c.078 0 .123.014.163.038l.128.078 2.323-5.177-10.097-4.247z" fill="#C10A0A"/><path d="M54.309 24.956l-1.351 2.216a2.471 2.471 0 00-.331 1.67l.402 2.559a2.47 2.47 0 01-.987 2.381l-2.094 1.524A2.47 2.47 0 0049 36.721l-.61 2.52a2.47 2.47 0 01-1.82 1.82l-2.519.61a2.471 2.471 0 00-1.417.947l-1.522 2.094a2.47 2.47 0 01-2.382.987l-2.558-.403a2.47 2.47 0 00-1.67.331l-2.216 1.351a2.47 2.47 0 01-2.572 0L27.5 45.63a2.471 2.471 0 00-1.67-.332l-2.56.403a2.47 2.47 0 01-2.38-.988l-1.524-2.094a2.47 2.47 0 00-1.417-.947l-2.52-.61a2.47 2.47 0 01-1.82-1.82L13 36.72a2.47 2.47 0 00-.948-1.416l-2.093-1.523A2.47 2.47 0 018.97 31.4l.403-2.558a2.47 2.47 0 00-.331-1.67L7.69 24.955a2.47 2.47 0 010-2.572l1.35-2.215c.306-.5.423-1.092.332-1.67l-.403-2.56a2.47 2.47 0 01.988-2.381l2.094-1.523a2.47 2.47 0 00.947-1.417l.61-2.52a2.47 2.47 0 011.82-1.82l2.52-.609a2.47 2.47 0 001.417-.948l1.522-2.093a2.47 2.47 0 012.382-.988l2.558.403a2.47 2.47 0 001.67-.331l2.216-1.35a2.47 2.47 0 012.572 0l2.215 1.35a2.47 2.47 0 001.67.331l2.56-.402a2.47 2.47 0 012.381.987l1.523 2.094c.345.474.847.81 1.417.948l2.52.61c.9.217 1.602.92 1.82 1.82l.609 2.52c.138.57.474 1.072.948 1.417l2.093 1.522a2.47 2.47 0 01.987 2.382l-.402 2.558a2.47 2.47 0 00.331 1.67l1.35 2.216a2.47 2.47 0 010 2.572z" fill="#FFC850"/><path d="M16.763 18.742a25.633 25.633 0 016.51-17.101h-.002a2.47 2.47 0 00-2.382.987L19.366 4.72a2.47 2.47 0 01-1.417.948l-2.519.61a2.47 2.47 0 00-1.82 1.82l-.61 2.52a2.47 2.47 0 01-.948 1.416l-2.094 1.523a2.47 2.47 0 00-.987 2.382l.402 2.559a2.47 2.47 0 01-.33 1.67L7.69 22.384a2.47 2.47 0 000 2.572l1.351 2.215c.305.5.422 1.092.331 1.67L8.971 31.4a2.47 2.47 0 00.987 2.381l2.093 1.523c.474.345.81.847.948 1.417l.61 2.52a2.47 2.47 0 001.82 1.82l2.519.609a2.47 2.47 0 011.417.948l1.523 2.094a2.47 2.47 0 002.381.987l2.56-.402a2.47 2.47 0 011.67.33l2.215 1.351a2.47 2.47 0 002.572 0l2.215-1.35a2.47 2.47 0 011.67-.331l2.559.402a2.47 2.47 0 002.381-.987l.193-.265c-13.658-.624-24.54-11.892-24.54-25.705z" fill="#E1A546"/><path d="M31 41.193c9.678 0 17.523-7.846 17.523-17.523S40.678 6.148 31.001 6.148c-9.678 0-17.523 7.845-17.523 17.522s7.845 17.523 17.523 17.523z" fill="#FFDC64"/><path d="M35.09 32.233c-6.449-1.029-11.624-6.204-12.653-12.653a15.357 15.357 0 01.337-6.488c.273-.998-.914-1.762-1.703-1.092a15.288 15.288 0 00-5.322 13.27c.723 7.133 6.518 12.927 13.651 13.65a15.288 15.288 0 0013.27-5.32c.67-.789-.094-1.976-1.093-1.703-2.024.552-4.215.7-6.487.337z" fill="#FFC850"/><path d="M31 31.038l-6.374 3.568a.89.89 0 01-1.309-.95l1.424-7.166-5.364-4.96a.89.89 0 01.5-1.538l7.255-.86 3.06-6.634a.89.89 0 011.617 0l3.06 6.634 7.254.86a.89.89 0 01.5 1.538l-5.364 4.96 1.424 7.165a.89.89 0 01-1.309.95L31 31.039z" fill="#fff"/><path d="M30.984 11.985a.876.876 0 00-.793.513l-3.06 6.634-7.254.86a.89.89 0 00-.5 1.538l5.364 4.96-1.424 7.165a.89.89 0 001.309.95l1.008-.564 1.71-7.82a1.178 1.178 0 00-.248-1.008l-1.812-2.155a.645.645 0 01.334-1.04l2.892-.739c.442-.113.779-.47.865-.918l1.61-8.376zm7.414 22.502l-3.518-3.91a1.877 1.877 0 00-2.284-.397L31 31.038l6.374 3.568a.875.875 0 001.024-.12z" fill="#FFFAB4"/></svg>