<svg width="62" height="62" fill="none" xmlns="http://www.w3.org/2000/svg"><g clip-path="url(#clip0)"><path d="M42.56 4.203H27.846a2.102 2.102 0 01-4.203 0H8.932A3.153 3.153 0 005.78 7.356v44.136a3.153 3.153 0 003.152 3.152H42.56a3.153 3.153 0 003.152-3.152V7.355a3.152 3.152 0 00-3.153-3.153z" fill="#9B735A"/><path d="M44.661 36.78c-.355 0-.703.026-1.05.053V7.356c0-.58-.471-1.05-1.051-1.05h-5.255a1.05 1.05 0 01-1.05-1.052v-1.05h-8.408a2.102 2.102 0 01-4.203 0h-8.407v1.05c0 .58-.47 1.051-1.05 1.051H8.931c-.58 0-1.05.47-1.05 1.051v44.136c0 .58.47 1.05 1.05 1.05h22.234c.113.72.28 1.423.5 2.102h10.893a3.153 3.153 0 003.153-3.152v-14.66a13.769 13.769 0 00-1.05-.052z" fill="#8C5F50"/><path d="M40.458 50.44H11.034a1.05 1.05 0 01-1.051-1.05V9.458c0-.58.47-1.051 1.05-1.051h29.425c.58 0 1.05.47 1.05 1.05V49.39c0 .58-.47 1.05-1.05 1.05z" fill="#F1F4FB"/><path d="M41.508 49.39V37.16C35.486 38.585 31 43.983 31 50.44h9.458c.58 0 1.05-.47 1.05-1.05z" fill="#E4EAF8"/><path d="M35.203 22.068H24.695a1.05 1.05 0 110-2.102h10.508a1.05 1.05 0 110 2.102z" fill="#7F8499"/><path d="M32.05 17.864h-7.355a1.05 1.05 0 110-2.101h7.356a1.05 1.05 0 110 2.101z" fill="#5B5D6E"/><path d="M35.203 32.576H24.695a1.05 1.05 0 110-2.102h10.508a1.05 1.05 0 110 2.102z" fill="#7F8499"/><path d="M32.05 28.373h-7.355a1.05 1.05 0 110-2.102h7.356a1.05 1.05 0 110 2.102z" fill="#5B5D6E"/><path d="M35.203 43.085H24.695a1.05 1.05 0 110-2.102h10.508a1.05 1.05 0 110 2.102z" fill="#7F8499"/><path d="M32.05 38.881h-7.355a1.05 1.05 0 110-2.101h7.356a1.05 1.05 0 110 2.101z" fill="#5B5D6E"/><path d="M32.05 2.102h-2.684C28.638.85 27.297 0 25.746 0c-1.552 0-2.893.85-3.62 2.102H19.44c-1.161 0-2.102.94-2.102 2.101v4.204c0 .58.47 1.05 1.05 1.05h14.713c.58 0 1.05-.47 1.05-1.05V4.203a2.1 2.1 0 00-2.101-2.101zM25.747 5.78a1.576 1.576 0 110-3.153 1.576 1.576 0 010 3.153z" fill="#FFF082"/><path d="M18.39 9.458h14.712a1.051 1.051 0 000-2.102H18.39a1.05 1.05 0 000 2.102zM44.66 62c6.385 0 11.56-5.175 11.56-11.56 0-6.383-5.175-11.559-11.56-11.559-6.383 0-11.558 5.176-11.558 11.56S38.277 62 44.66 62z" fill="#FFDC64"/><path d="M44.661 59.898a9.458 9.458 0 009.458-9.457 9.458 9.458 0 10-9.458 9.458z" fill="#fff"/><path d="M18.39 22.068a3.152 3.152 0 100-6.305 3.152 3.152 0 000 6.305zm0 21.017a3.153 3.153 0 100-6.305 3.153 3.153 0 000 6.305zm0-10.509a3.153 3.153 0 100-6.305 3.153 3.153 0 000 6.305z" fill="#FFDC64"/><path d="M33.164 43.085h2.04a1.05 1.05 0 100-2.102h-.384a13.69 13.69 0 00-1.656 2.102z" fill="#5B5D6E"/><path d="M46.426 54.515c-2.931-.545-5.297-2.912-5.84-5.843a7.417 7.417 0 01.013-2.818c.132-.656-.636-1.106-1.112-.636a7.338 7.338 0 00-2.106 6.29c.447 3.178 3.035 5.765 6.212 6.213a7.338 7.338 0 006.29-2.106c.471-.476.021-1.244-.635-1.113a7.416 7.416 0 01-2.822.013z" fill="#E4EAF8"/><path d="M49.04 55.87c-.269 0-.538-.102-.743-.308l-4.379-4.378a1.05 1.05 0 111.486-1.486l4.38 4.378a1.05 1.05 0 01-.744 1.794z" fill="#5B5D6E"/><path d="M44.661 51.492a1.05 1.05 0 01-1.05-1.051v-7.356a1.05 1.05 0 012.101 0v7.356c0 .58-.47 1.05-1.05 1.05z" fill="#464655"/></g><defs><clipPath id="clip0"><path fill="#fff" d="M0 0h62v62H0z"/></clipPath></defs></svg>