<svg width="62" height="62" fill="none" xmlns="http://www.w3.org/2000/svg"><g clip-path="url(#clip0)"><path d="M31.453 1.519l3.8-1.436a1.28 1.28 0 011.255.199l3.171 2.54c.244.195.55.295.862.28l4.059-.191a1.28 1.28 0 011.131.576l2.23 3.396c.172.261.433.45.734.533l3.919 1.072c.437.12.779.46.898.898l1.072 3.919c.082.301.272.562.533.733l3.396 2.23c.378.25.598.68.576 1.133l-.191 4.058c-.015.312.085.618.28.862l2.54 3.17c.284.354.36.831.2 1.255l-1.437 3.801c-.11.292-.11.614 0 .906l1.436 3.8c.16.425.085.902-.199 1.256l-2.54 3.17c-.195.244-.295.55-.28.862l.191 4.059c.022.453-.198.883-.576 1.132l-3.396 2.23a1.28 1.28 0 00-.533.733l-1.072 3.92c-.12.436-.46.778-.898.898l-3.919 1.071a1.28 1.28 0 00-.733.533l-2.23 3.396c-.25.379-.68.598-1.133.577l-4.058-.192a1.283 1.283 0 00-.862.28l-3.17 2.54c-.355.284-.831.36-1.255.2l-3.801-1.437a1.282 1.282 0 00-.906 0l-3.8 1.436c-.425.16-.902.085-1.256-.198l-3.17-2.54a1.281 1.281 0 00-.862-.28l-4.059.19a1.282 1.282 0 01-1.132-.576l-2.23-3.396a1.28 1.28 0 00-.733-.533l-3.92-1.072a1.282 1.282 0 01-.897-.898l-1.072-3.919a1.281 1.281 0 00-.533-.733l-3.396-2.23A1.282 1.282 0 012.91 44.6l.192-4.059a1.281 1.281 0 00-.28-.862l-2.54-3.17a1.282 1.282 0 01-.199-1.255l1.436-3.801c.11-.292.11-.614 0-.906L.083 26.746a1.282 1.282 0 01.199-1.255l2.54-3.17c.195-.244.295-.55.28-.862L2.911 17.4a1.282 1.282 0 01.577-1.131l3.395-2.231c.261-.171.45-.432.533-.733l1.072-3.92c.12-.436.461-.778.898-.897l3.92-1.072c.3-.083.56-.272.732-.533l2.23-3.396c.25-.379.68-.598 1.133-.577l4.058.192c.312.015.618-.085.862-.28l3.17-2.54c.355-.284.832-.36 1.256-.2l3.8 1.437c.292.11.614.11.906 0z" fill="#FFC850"/><path d="M40.675 53.575c-17.811 0-32.25-14.439-32.25-32.25a32.13 32.13 0 012.902-13.368l-1.94.53c-.438.12-.78.462-.899.899l-1.072 3.919a1.282 1.282 0 01-.533.733l-3.396 2.23c-.378.25-.598.68-.576 1.132l.191 4.059c.015.312-.085.618-.28.862l-2.54 3.17a1.28 1.28 0 00-.199 1.255l1.436 3.8c.11.293.11.615 0 .907l-1.436 3.8a1.28 1.28 0 00.199 1.255l2.54 3.171c.195.244.295.55.28.862L2.911 44.6c-.022.452.198.883.577 1.131l3.395 2.23c.261.172.45.433.533.734l1.072 3.92c.12.436.461.778.898.897l3.92 1.072c.3.083.561.272.732.533l2.231 3.396c.249.379.679.598 1.132.577l4.058-.192c.312-.014.619.085.862.28l3.171 2.54c.354.284.83.36 1.255.2l3.8-1.437c.292-.11.614-.11.906 0l3.801 1.436c.424.16.901.085 1.255-.198l3.17-2.54c.244-.196.55-.295.862-.28l4.059.19a1.28 1.28 0 001.132-.576l2.23-3.396c.172-.26.432-.45.733-.533l3.92-1.072c.436-.12.778-.46.898-.898l.53-1.941a32.122 32.122 0 01-13.368 2.902z" fill="#E1A546"/><path d="M31 55.725c13.655 0 24.725-11.07 24.725-24.726 0-13.655-11.07-24.725-24.725-24.725C17.344 6.274 6.274 17.344 6.274 31c0 13.655 11.07 24.725 24.726 24.725z" fill="#FFDC64"/><path d="M42.888 48.642a1.166 1.166 0 00-.9-.461C28.722 47.74 18.1 36.85 18.1 23.475c0-3.577.768-6.97 2.14-10.035.434-.97-.65-1.936-1.542-1.356C11.883 16.521 7.61 24.528 8.555 33.461c1.067 10.077 8.966 18.337 18.985 19.852 5.53.836 10.715-.376 14.996-2.947.604-.362.774-1.16.352-1.724z" fill="#FFC850"/><path d="M23.475 43.9h-6.45a1.075 1.075 0 01-1.075-1.075v-17.2c0-.594.481-1.075 1.075-1.075h6.45c.594 0 1.075.481 1.075 1.075v17.2c0 .594-.481 1.075-1.075 1.075zm23.642-16.94c-.14-1.399-1.421-2.41-2.827-2.41h-9.151c2.502-2.026 4.201-4.744 4.447-6.98.183-1.657-.963-3.231-2.63-3.247a2.676 2.676 0 00-2.713 2.674c0 .968-2.1 3.84-6.037 5.118l-.018.006c-.92.305-1.488 1.236-1.488 2.206V41.75c0 .594.481 1.075 1.075 1.075h13.866c1.07 0 2.064-.732 2.235-1.79a2.151 2.151 0 00-2.12-2.51h.96c1.071 0 2.064-.732 2.236-1.79a2.151 2.151 0 00-2.121-2.51h.96c1.071 0 2.064-.732 2.236-1.79a2.151 2.151 0 00-2.12-2.51h.537a2.688 2.688 0 002.673-2.965z" fill="#fff"/><path d="M40.675 36.375a1.075 1.075 0 000 2.15h2.04c1.072 0 2.064-.732 2.236-1.79.02-.122.019-.241.019-.36h-4.295zm0-4.3a1.075 1.075 0 100 2.15h3.116c1.07 0 2.063-.732 2.235-1.79.02-.122.019-.241.019-.36h-5.37zm0-4.3a1.075 1.075 0 100 2.15h3.768a2.678 2.678 0 002.62-2.15h-6.388z" fill="#FFFAB4"/><path d="M31 40.675a2.15 2.15 0 01-2.15-2.15V25.278c0-.43.258-.816.654-.988 1.76-.766 7.297-3.713 7.88-9.501l-.445-.466a2.676 2.676 0 00-2.695 2.674c0 .968-2.101 3.84-6.038 5.119a2.188 2.188 0 00-1.506 2.079V41.75c0 .594.482 1.075 1.075 1.075h13.866c1.187 0 2.277-.898 2.262-2.142l-.008-.008H31zM20.25 41.75a2.15 2.15 0 01-2.15-2.15V24.55h-1.075c-.594 0-1.075.481-1.075 1.075v17.2c0 .594.481 1.075 1.075 1.075h6.45c.594 0 1.075-.481 1.075-1.075V41.75h-4.3z" fill="#FFFAB4"/><path d="M20.25 41.212a1.612 1.612 0 100-3.225 1.612 1.612 0 000 3.225z" fill="#FFDC64"/></g><defs><clipPath id="clip0"><path fill="#fff" d="M0 0h62v62H0z"/></clipPath></defs></svg>