<svg width="42" height="42" fill="none" xmlns="http://www.w3.org/2000/svg"><g clip-path="url(#clip0)" fill="#E22121"><path d="M13.398 32.668a4.385 4.385 0 100 8.77 4.385 4.385 0 000-8.77zm0 6.821a2.436 2.436 0 110-4.872 2.436 2.436 0 010 4.872zm18.513-6.821a4.385 4.385 0 100 8.77 4.385 4.385 0 000-8.77zm0 6.821a2.436 2.436 0 110-4.872 2.436 2.436 0 010 4.872zm9.89-32.399a1.218 1.218 0 00-.78-.39L9.306 6.263l-.876-2.68A4.482 4.482 0 004.24.563H.974a.974.974 0 100 1.949H4.24a2.534 2.534 0 012.338 1.705l6.188 18.66-.488 1.12a4.677 4.677 0 00.439 4.239 4.531 4.531 0 003.654 2.046h18.952a.974.974 0 000-1.949H16.37a2.485 2.485 0 01-2.046-1.169 2.68 2.68 0 01-.244-2.339l.39-.877 20.51-2.143a5.36 5.36 0 004.63-4.093l2.338-9.792a.828.828 0 00-.147-.828zM37.71 17.274a3.313 3.313 0 01-2.972 2.582L14.47 21.95 9.939 8.211l29.865.439-2.095 8.623z"/></g><defs><clipPath id="clip0"><path fill="#fff" d="M0 0h25v25H0z"/></clipPath></defs></svg>