<svg width="20" height="20" fill="none" xmlns="http://www.w3.org/2000/svg"><path d="M6.742 15.138c-1.038 0-1.88.865-1.88 1.931 0 1.067.842 1.931 1.88 1.931 1.038 0 1.88-.864 1.88-1.93 0-1.067-.842-1.932-1.88-1.932zm0 3.004c-.577 0-1.044-.48-1.044-1.073 0-.592.467-1.072 1.044-1.072.576 0 1.044.48 1.044 1.072 0 .593-.468 1.073-1.044 1.073zm7.934-3.004c-1.038 0-1.879.865-1.879 1.931 0 1.067.841 1.931 1.88 1.931 1.037 0 1.878-.864 1.878-1.93 0-1.067-.84-1.932-1.879-1.932zm0 3.004c-.576 0-1.044-.48-1.044-1.073 0-.592.468-1.072 1.044-1.072.577 0 1.044.48 1.044 1.072 0 .593-.467 1.073-1.044 1.073zm4.239-14.267a.517.517 0 00-.334-.172L4.988 3.51l-.376-1.18A1.926 1.926 0 002.817 1h-1.4A.423.423 0 001 1.43c0 .236.187.428.418.428h1.399c.454.01.853.31 1.002.751l2.652 8.217-.21.493a2.108 2.108 0 00.189 1.867 1.93 1.93 0 001.566.901h8.122c.23 0 .417-.192.417-.43a.423.423 0 00-.417-.428H8.016a1.06 1.06 0 01-.877-.515 1.208 1.208 0 01-.105-1.03l.167-.386 8.79-.944a2.32 2.32 0 001.984-1.802l1.002-4.312a.372.372 0 00-.062-.365zM17.16 8.359a1.433 1.433 0 01-1.274 1.137l-8.686.922-1.942-6.05 12.8.193-.898 3.798z" fill="#E22121"/><path d="M6.742 15.138c-1.038 0-1.88.865-1.88 1.931 0 1.067.842 1.931 1.88 1.931 1.038 0 1.88-.864 1.88-1.93 0-1.067-.842-1.932-1.88-1.932zm0 3.004c-.577 0-1.044-.48-1.044-1.073 0-.592.467-1.072 1.044-1.072.576 0 1.044.48 1.044 1.072 0 .593-.468 1.073-1.044 1.073zm7.934-3.004c-1.038 0-1.879.865-1.879 1.931 0 1.067.841 1.931 1.88 1.931 1.037 0 1.878-.864 1.878-1.93 0-1.067-.84-1.932-1.879-1.932zm0 3.004c-.576 0-1.044-.48-1.044-1.073 0-.592.468-1.072 1.044-1.072.577 0 1.044.48 1.044 1.072 0 .593-.467 1.073-1.044 1.073zm4.239-14.267a.517.517 0 00-.334-.172L4.988 3.51l-.376-1.18A1.926 1.926 0 002.817 1h-1.4A.423.423 0 001 1.43c0 .236.187.428.418.428h1.399c.454.01.853.31 1.002.751l2.652 8.217-.21.493a2.108 2.108 0 00.189 1.867 1.93 1.93 0 001.566.901h8.122c.23 0 .417-.192.417-.43a.423.423 0 00-.417-.428H8.016a1.06 1.06 0 01-.877-.515 1.208 1.208 0 01-.105-1.03l.167-.386 8.79-.944a2.32 2.32 0 001.984-1.802l1.002-4.312a.372.372 0 00-.062-.365zM17.16 8.359a1.433 1.433 0 01-1.274 1.137l-8.686.922-1.942-6.05 12.8.193-.898 3.798z" stroke="#E22121" stroke-width=".5"/></svg>