<svg width="12" height="16" fill="none" xmlns="http://www.w3.org/2000/svg"><path d="M6 0C2.692 0 0 2.6 0 5.795 0 9.76 5.37 15.58 5.598 15.827c.215.23.59.23.804 0C6.631 15.58 12 9.76 12 5.795 12 2.599 9.308 0 6 0zm0 14.679c-1.807-2.073-4.92-6.163-4.92-8.884 0-2.62 2.207-4.752 4.92-4.752s4.92 2.132 4.92 4.752c0 2.721-3.112 6.81-4.92 8.884z" fill="#E22121"/><path d="M6 2.88c-1.665 0-3.019 1.307-3.019 2.915C2.981 7.402 4.335 8.71 6 8.71s3.019-1.308 3.019-2.915c0-1.608-1.354-2.916-3.019-2.916zm0 4.787c-1.069 0-1.938-.84-1.938-1.872 0-1.033.87-1.872 1.938-1.872 1.069 0 1.938.84 1.938 1.872S7.068 7.667 6 7.667z" fill="#E22121"/></svg>