<svg width="282" height="135" fill="none" xmlns="http://www.w3.org/2000/svg"><path d="M0 0h282v135H0V0z" fill="#D9D9D9"/><g filter="url(#filter0_d)"><path d="M10 35.05V125h236.066L272 99.146V10H35.126L10 35.05z" fill="#fff"/></g><g filter="url(#filter1_d)"><path d="M273.32 117.68l.834 3.002.846 2.998-2.165 2.155L270.68 128l-2.998-.846-3.002-.834-.834-3.002-.846-2.998 2.165-2.155L267.32 116l2.998.846 3.002.834z" fill="#F8F8F8"/></g><g filter="url(#filter2_d)"><path d="M17.32 8.68l.834 3.002L19 14.68l-2.165 2.155L14.68 19l-2.998-.846-3.002-.834-.834-3.002L7 11.32l2.165-2.155L11.32 7l2.998.846 3.002.834z" fill="#F8F8F8"/></g><defs><filter id="filter0_d" x="10" y="10" width="266" height="119" filterUnits="userSpaceOnUse" color-interpolation-filters="sRGB"><feFlood flood-opacity="0" result="BackgroundImageFix"/><feColorMatrix in="SourceAlpha" values="0 0 0 0 0 0 0 0 0 0 0 0 0 0 0 0 0 0 127 0"/><feOffset dx="2" dy="2"/><feGaussianBlur stdDeviation="1"/><feColorMatrix values="0 0 0 0 0 0 0 0 0 0 0 0 0 0 0 0 0 0 0.03 0"/><feBlend in2="BackgroundImageFix" result="effect1_dropShadow"/><feBlend in="SourceGraphic" in2="effect1_dropShadow" result="shape"/></filter><filter id="filter1_d" x="262" y="115" width="16" height="16" filterUnits="userSpaceOnUse" color-interpolation-filters="sRGB"><feFlood flood-opacity="0" result="BackgroundImageFix"/><feColorMatrix in="SourceAlpha" values="0 0 0 0 0 0 0 0 0 0 0 0 0 0 0 0 0 0 127 0"/><feOffset dx="1" dy="1"/><feGaussianBlur stdDeviation="1"/><feColorMatrix values="0 0 0 0 0 0 0 0 0 0 0 0 0 0 0 0 0 0 0.1 0"/><feBlend in2="BackgroundImageFix" result="effect1_dropShadow"/><feBlend in="SourceGraphic" in2="effect1_dropShadow" result="shape"/></filter><filter id="filter2_d" x="6" y="6" width="16" height="16" filterUnits="userSpaceOnUse" color-interpolation-filters="sRGB"><feFlood flood-opacity="0" result="BackgroundImageFix"/><feColorMatrix in="SourceAlpha" values="0 0 0 0 0 0 0 0 0 0 0 0 0 0 0 0 0 0 127 0"/><feOffset dx="1" dy="1"/><feGaussianBlur stdDeviation="1"/><feColorMatrix values="0 0 0 0 0 0 0 0 0 0 0 0 0 0 0 0 0 0 0.1 0"/><feBlend in2="BackgroundImageFix" result="effect1_dropShadow"/><feBlend in="SourceGraphic" in2="effect1_dropShadow" result="shape"/></filter></defs></svg>