<svg width="60" height="61" viewBox="0 0 60 61" fill="none" xmlns="http://www.w3.org/2000/svg">
<path d="M9 16.5C9.55228 16.5 10 16.0523 10 15.5C10 14.9477 9.55228 14.5 9 14.5C8.44772 14.5 8 14.9477 8 15.5C8 16.0523 8.44772 16.5 9 16.5Z" fill="black"/>
<path d="M15 16.5C15.5523 16.5 16 16.0523 16 15.5C16 14.9477 15.5523 14.5 15 14.5C14.4477 14.5 14 14.9477 14 15.5C14 16.0523 14.4477 16.5 15 16.5Z" fill="black"/>
<path d="M12 13.5C12.5523 13.5 13 13.0523 13 12.5C13 11.9477 12.5523 11.5 12 11.5C11.4477 11.5 11 11.9477 11 12.5C11 13.0523 11.4477 13.5 12 13.5Z" fill="black"/>
<path d="M21 16.5C21.5523 16.5 22 16.0523 22 15.5C22 14.9477 21.5523 14.5 21 14.5C20.4477 14.5 20 14.9477 20 15.5C20 16.0523 20.4477 16.5 21 16.5Z" fill="black"/>
<path d="M9 10.5C9.55228 10.5 10 10.0523 10 9.5C10 8.94772 9.55228 8.5 9 8.5C8.44772 8.5 8 8.94772 8 9.5C8 10.0523 8.44772 10.5 9 10.5Z" fill="black"/>
<path d="M15 10.5C15.5523 10.5 16 10.0523 16 9.5C16 8.94772 15.5523 8.5 15 8.5C14.4477 8.5 14 8.94772 14 9.5C14 10.0523 14.4477 10.5 15 10.5Z" fill="black"/>
<path d="M21 10.5C21.5523 10.5 22 10.0523 22 9.5C22 8.94772 21.5523 8.5 21 8.5C20.4477 8.5 20 8.94772 20 9.5C20 10.0523 20.4477 10.5 21 10.5Z" fill="black"/>
<path d="M18 13.5C18.5523 13.5 19 13.0523 19 12.5C19 11.9477 18.5523 11.5 18 11.5C17.4477 11.5 17 11.9477 17 12.5C17 13.0523 17.4477 13.5 18 13.5Z" fill="black"/>
<path d="M9 22.5C9.55228 22.5 10 22.0523 10 21.5C10 20.9477 9.55228 20.5 9 20.5C8.44772 20.5 8 20.9477 8 21.5C8 22.0523 8.44772 22.5 9 22.5Z" fill="black"/>
<path d="M15 22.5C15.5523 22.5 16 22.0523 16 21.5C16 20.9477 15.5523 20.5 15 20.5C14.4477 20.5 14 20.9477 14 21.5C14 22.0523 14.4477 22.5 15 22.5Z" fill="black"/>
<path d="M12 19.5C12.5523 19.5 13 19.0523 13 18.5C13 17.9477 12.5523 17.5 12 17.5C11.4477 17.5 11 17.9477 11 18.5C11 19.0523 11.4477 19.5 12 19.5Z" fill="black"/>
<path d="M21 22.5C21.5523 22.5 22 22.0523 22 21.5C22 20.9477 21.5523 20.5 21 20.5C20.4477 20.5 20 20.9477 20 21.5C20 22.0523 20.4477 22.5 21 22.5Z" fill="black"/>
<path d="M18 19.5C18.5523 19.5 19 19.0523 19 18.5C19 17.9477 18.5523 17.5 18 17.5C17.4477 17.5 17 17.9477 17 18.5C17 19.0523 17.4477 19.5 18 19.5Z" fill="black"/>
<path d="M24 13.5C24.5523 13.5 25 13.0523 25 12.5C25 11.9477 24.5523 11.5 24 11.5C23.4477 11.5 23 11.9477 23 12.5C23 13.0523 23.4477 13.5 24 13.5Z" fill="black"/>
<path d="M24 19.5C24.5523 19.5 25 19.0523 25 18.5C25 17.9477 24.5523 17.5 24 17.5C23.4477 17.5 23 17.9477 23 18.5C23 19.0523 23.4477 19.5 24 19.5Z" fill="black"/>
<path d="M24 25.5C24.5523 25.5 25 25.0523 25 24.5C25 23.9477 24.5523 23.5 24 23.5C23.4477 23.5 23 23.9477 23 24.5C23 25.0523 23.4477 25.5 24 25.5Z" fill="black"/>
<path d="M9 28.5C9.55228 28.5 10 28.0523 10 27.5C10 26.9477 9.55228 26.5 9 26.5C8.44772 26.5 8 26.9477 8 27.5C8 28.0523 8.44772 28.5 9 28.5Z" fill="black"/>
<path d="M15 28.5C15.5523 28.5 16 28.0523 16 27.5C16 26.9477 15.5523 26.5 15 26.5C14.4477 26.5 14 26.9477 14 27.5C14 28.0523 14.4477 28.5 15 28.5Z" fill="black"/>
<path d="M12 25.5C12.5523 25.5 13 25.0523 13 24.5C13 23.9477 12.5523 23.5 12 23.5C11.4477 23.5 11 23.9477 11 24.5C11 25.0523 11.4477 25.5 12 25.5Z" fill="black"/>
<path d="M21 28.5C21.5523 28.5 22 28.0523 22 27.5C22 26.9477 21.5523 26.5 21 26.5C20.4477 26.5 20 26.9477 20 27.5C20 28.0523 20.4477 28.5 21 28.5Z" fill="black"/>
<path d="M27 16.5C27.5523 16.5 28 16.0523 28 15.5C28 14.9477 27.5523 14.5 27 14.5C26.4477 14.5 26 14.9477 26 15.5C26 16.0523 26.4477 16.5 27 16.5Z" fill="black"/>
<path d="M27 10.5C27.5523 10.5 28 10.0523 28 9.5C28 8.94772 27.5523 8.5 27 8.5C26.4477 8.5 26 8.94772 26 9.5C26 10.0523 26.4477 10.5 27 10.5Z" fill="black"/>
<path d="M27 22.5C27.5523 22.5 28 22.0523 28 21.5C28 20.9477 27.5523 20.5 27 20.5C26.4477 20.5 26 20.9477 26 21.5C26 22.0523 26.4477 22.5 27 22.5Z" fill="black"/>
<path d="M30 13.5C30.5523 13.5 31 13.0523 31 12.5C31 11.9477 30.5523 11.5 30 11.5C29.4477 11.5 29 11.9477 29 12.5C29 13.0523 29.4477 13.5 30 13.5Z" fill="black"/>
<path d="M30 19.5C30.5523 19.5 31 19.0523 31 18.5C31 17.9477 30.5523 17.5 30 17.5C29.4477 17.5 29 17.9477 29 18.5C29 19.0523 29.4477 19.5 30 19.5Z" fill="black"/>
<path d="M30 25.5C30.5523 25.5 31 25.0523 31 24.5C31 23.9477 30.5523 23.5 30 23.5C29.4477 23.5 29 23.9477 29 24.5C29 25.0523 29.4477 25.5 30 25.5Z" fill="black"/>
<path d="M27 28.5C27.5523 28.5 28 28.0523 28 27.5C28 26.9477 27.5523 26.5 27 26.5C26.4477 26.5 26 26.9477 26 27.5C26 28.0523 26.4477 28.5 27 28.5Z" fill="black"/>
<path d="M33 16.5C33.5523 16.5 34 16.0523 34 15.5C34 14.9477 33.5523 14.5 33 14.5C32.4477 14.5 32 14.9477 32 15.5C32 16.0523 32.4477 16.5 33 16.5Z" fill="black"/>
<path d="M33 10.5C33.5523 10.5 34 10.0523 34 9.5C34 8.94772 33.5523 8.5 33 8.5C32.4477 8.5 32 8.94772 32 9.5C32 10.0523 32.4477 10.5 33 10.5Z" fill="black"/>
<path d="M33 22.5C33.5523 22.5 34 22.0523 34 21.5C34 20.9477 33.5523 20.5 33 20.5C32.4477 20.5 32 20.9477 32 21.5C32 22.0523 32.4477 22.5 33 22.5Z" fill="black"/>
<path d="M33 28.5C33.5523 28.5 34 28.0523 34 27.5C34 26.9477 33.5523 26.5 33 26.5C32.4477 26.5 32 26.9477 32 27.5C32 28.0523 32.4477 28.5 33 28.5Z" fill="black"/>
<path d="M18 25.5C18.5523 25.5 19 25.0523 19 24.5C19 23.9477 18.5523 23.5 18 23.5C17.4477 23.5 17 23.9477 17 24.5C17 25.0523 17.4477 25.5 18 25.5Z" fill="black"/>
<path d="M24 31.5C24.5523 31.5 25 31.0523 25 30.5C25 29.9477 24.5523 29.5 24 29.5C23.4477 29.5 23 29.9477 23 30.5C23 31.0523 23.4477 31.5 24 31.5Z" fill="black"/>
<path d="M9 34.5C9.55228 34.5 10 34.0523 10 33.5C10 32.9477 9.55228 32.5 9 32.5C8.44772 32.5 8 32.9477 8 33.5C8 34.0523 8.44772 34.5 9 34.5Z" fill="black"/>
<path d="M15 34.5C15.5523 34.5 16 34.0523 16 33.5C16 32.9477 15.5523 32.5 15 32.5C14.4477 32.5 14 32.9477 14 33.5C14 34.0523 14.4477 34.5 15 34.5Z" fill="black"/>
<path d="M12 31.5C12.5523 31.5 13 31.0523 13 30.5C13 29.9477 12.5523 29.5 12 29.5C11.4477 29.5 11 29.9477 11 30.5C11 31.0523 11.4477 31.5 12 31.5Z" fill="black"/>
<path d="M21 34.5C21.5523 34.5 22 34.0523 22 33.5C22 32.9477 21.5523 32.5 21 32.5C20.4477 32.5 20 32.9477 20 33.5C20 34.0523 20.4477 34.5 21 34.5Z" fill="black"/>
<path d="M30 31.5C30.5523 31.5 31 31.0523 31 30.5C31 29.9477 30.5523 29.5 30 29.5C29.4477 29.5 29 29.9477 29 30.5C29 31.0523 29.4477 31.5 30 31.5Z" fill="black"/>
<path d="M27 34.5C27.5523 34.5 28 34.0523 28 33.5C28 32.9477 27.5523 32.5 27 32.5C26.4477 32.5 26 32.9477 26 33.5C26 34.0523 26.4477 34.5 27 34.5Z" fill="black"/>
<path d="M33 34.5C33.5523 34.5 34 34.0523 34 33.5C34 32.9477 33.5523 32.5 33 32.5C32.4477 32.5 32 32.9477 32 33.5C32 34.0523 32.4477 34.5 33 34.5Z" fill="black"/>
<path d="M18 31.5C18.5523 31.5 19 31.0523 19 30.5C19 29.9477 18.5523 29.5 18 29.5C17.4477 29.5 17 29.9477 17 30.5C17 31.0523 17.4477 31.5 18 31.5Z" fill="black"/>
<path d="M60 26.5V18.5H52V21.5H39V8.5H42V0.5H34V3.5H8V0.5H0V8.5H3V34.5H0V42.5H8V39.5H21V52.5H18V60.5H26V57.5H52V60.5H60V52.5H57V26.5H60ZM8 37.5V34.5H5V8.5H8V5.5H34V8.5H37V21.5V34.5H34V37.5H21H8ZM55 52.5H52V55.5H26V52.5H23V39.5H34V42.5H42V34.5H39V23.5H52V26.5H55V52.5Z" fill="black"/>
</svg>
