<svg width="60" height="60" viewBox="0 0 60 60" fill="none" xmlns="http://www.w3.org/2000/svg">
<g clip-path="url(#clip0)">
<path d="M38.7414 4.44643C35.9998 3.50881 33.0593 3 30 3C15.0883 3 3 15.0883 3 30C3 32.6806 3.39064 35.27 4.1181 37.7143M56.7911 26.625C56.929 27.7306 57 28.857 57 30C57 44.9117 44.9117 57 30 57C27.495 57 25.0696 56.6589 22.7679 56.0205" stroke="black" stroke-width="2"/>
<path d="M20.5808 53.4091C20.2217 54.2597 19.7967 55.0428 19.3043 55.7627C18.633 56.7441 18.0834 57.4234 17.6598 57.8006C17.0032 58.4198 16.2997 58.7369 15.5464 58.7549C15.0056 58.7549 14.3534 58.5971 13.5942 58.277C12.8325 57.9584 12.1325 57.8006 11.4925 57.8006C10.8212 57.8006 10.1013 57.9584 9.33123 58.277C8.56002 58.5971 7.93874 58.764 7.46373 58.7805C6.74132 58.8121 6.02125 58.4859 5.30251 57.8006C4.84376 57.3903 4.26997 56.6869 3.58259 55.6905C2.84508 54.6265 2.23875 53.3926 1.76374 51.9858C1.25502 50.4664 1 48.9951 1 47.5706C1 45.9389 1.34384 44.5316 2.03254 43.3523C2.57379 42.405 3.29386 41.6577 4.19508 41.1092C5.09629 40.5606 6.07006 40.2811 7.11872 40.2632C7.69251 40.2632 8.44497 40.4452 9.38004 40.8029C10.3125 41.1618 10.9112 41.3438 11.1737 41.3438C11.3699 41.3438 12.035 41.131 13.1625 40.7067C14.2288 40.3132 15.1287 40.1503 15.8659 40.2145C17.8635 40.3798 19.3644 41.1873 20.3625 42.6421C18.5758 43.7522 17.6921 45.3069 17.7097 47.3014C17.7258 48.855 18.2754 50.1478 19.3556 51.1743C19.8451 51.6507 20.3918 52.0189 21 52.2804C20.8681 52.6727 20.7289 53.0484 20.5808 53.4091ZM15.9993 34.9218C15.9993 36.1395 15.5654 37.2764 14.7007 38.3288C13.6572 39.5798 12.395 40.3027 11.0262 40.1886C11.0088 40.0425 10.9987 39.8888 10.9987 39.7272C10.9987 38.5583 11.4949 37.3073 12.3762 36.2844C12.8162 35.7665 13.3758 35.3359 14.0544 34.9923C14.7315 34.6539 15.372 34.4668 15.9744 34.4348C15.9919 34.5975 15.9993 34.7603 15.9993 34.9218V34.9218Z" fill="#1B1B1C"/>
<path fill-rule="evenodd" clip-rule="evenodd" d="M54.3572 0.991651C54.5526 0.698576 54.4734 0.302576 54.1803 0.107185C53.8872 -0.0882071 53.4913 -0.00900191 53.2959 0.284073L52.0343 2.17648C51.1681 1.73637 50.1877 1.48827 49.1494 1.48827C48.1111 1.48827 47.1308 1.73637 46.2645 2.17648L45.0029 0.284073C44.8076 -0.00900191 44.4116 -0.0882071 44.1185 0.107185C43.8254 0.302576 43.7462 0.698576 43.9416 0.991651L45.1907 2.86525C43.7169 4.0335 42.7715 5.83944 42.7715 7.8662V8.2914H55.5274V7.8662C55.5274 5.83944 54.582 4.0335 53.1081 2.86525L54.3572 0.991651ZM47.8738 4.88983H46.1731V6.59061H47.8738V4.88983ZM52.1258 4.88983H50.425V6.59061H52.1258V4.88983Z" fill="#1B1B1C"/>
<path d="M39.7951 9.99218C39.0907 9.99218 38.5195 10.5633 38.5195 11.2678V19.7717C38.5195 20.4762 39.0907 21.0473 39.7951 21.0473C40.4996 21.0473 41.0707 20.4762 41.0707 19.7717V11.2678C41.0707 10.5633 40.4996 9.99218 39.7951 9.99218Z" fill="#1B1B1C"/>
<path d="M42.738 20.8242C42.738 21.3944 43.2074 21.8977 43.811 21.8977H45.3227V25.7244C45.3227 26.4289 45.8938 27 46.5982 27C47.3027 27 47.8738 26.4289 47.8738 25.7244V21.8977H50.425V25.7244C50.425 26.4289 50.9962 27 51.7006 27C52.405 27 52.9762 26.4289 52.9762 25.7244V21.8977H54.4744C55.0444 21.8977 55.5475 21.428 55.5475 20.8242L55.5274 9.99218H42.7715L42.738 20.8242Z" fill="#1B1B1C"/>
<path d="M57.2281 11.2678C57.2281 10.5633 57.7993 9.99218 58.5037 9.99218C59.2082 9.99218 59.7793 10.5633 59.7793 11.2678V19.7717C59.7793 20.4762 59.2082 21.0473 58.5037 21.0473C57.7993 21.0473 57.2281 20.4762 57.2281 19.7717V11.2678Z" fill="#1B1B1C"/>
</g>
<defs>
<clipPath id="clip0">
<rect width="60" height="60" fill="white"/>
</clipPath>
</defs>
</svg>
