<svg width="60" height="60" viewBox="0 0 60 60" fill="none" xmlns="http://www.w3.org/2000/svg">
<path fill-rule="evenodd" clip-rule="evenodd" d="M30 38C34.4183 38 38 34.4183 38 30C38 25.5817 34.4183 22 30 22C25.5817 22 22 25.5817 22 30C22 34.4183 25.5817 38 30 38ZM30 40C35.5228 40 40 35.5228 40 30C40 24.4772 35.5228 20 30 20C24.4772 20 20 24.4772 20 30C20 35.5228 24.4772 40 30 40Z" fill="#1B1B1C"/>
<path fill-rule="evenodd" clip-rule="evenodd" d="M30 32C31.1046 32 32 31.1046 32 30C32 28.8954 31.1046 28 30 28C28.8954 28 28 28.8954 28 30C28 31.1046 28.8954 32 30 32Z" fill="#1B1B1C"/>
<path d="M14 50.5C14 52.9853 11.9853 55 9.5 55C7.01472 55 5 52.9853 5 50.5C5 48.0147 7.01472 46 9.5 46C11.9853 46 14 48.0147 14 50.5Z" fill="#1B1B1C"/>
<path d="M58 30C58 45.464 45.464 58 30 58C24.8982 58 20.1151 56.6355 15.9957 54.2516C15.6563 54.838 15.2398 55.3741 14.76 55.8462C19.2264 58.4855 24.4363 60 30 60C46.5685 60 60 46.5685 60 30C60 13.4315 46.5685 0 30 0C13.4315 0 0 13.4315 0 30C0 35.5637 1.51452 40.7736 4.15377 45.24C4.62585 44.7602 5.16201 44.3437 5.74839 44.0043C3.36447 39.8849 2 35.1018 2 30C2 14.536 14.536 2 30 2C45.464 2 58 14.536 58 30Z" fill="#1B1B1C"/>
<path d="M48 16.5C48 18.9853 45.9853 21 43.5 21C41.0147 21 39 18.9853 39 16.5C39 14.0147 41.0147 12 43.5 12C45.9853 12 48 14.0147 48 16.5Z" fill="#1B1B1C"/>
<path d="M37.8298 11.5908C35.4251 10.5667 32.7787 10 30 10C18.9543 10 10 18.9543 10 30C10 41.0457 18.9543 50 30 50C41.0457 50 50 41.0457 50 30C50 27.2213 49.4333 24.5749 48.4092 22.1702C47.8971 22.614 47.3243 22.9895 46.7048 23.2827C47.5402 25.3583 48 27.6255 48 30C48 39.9411 39.9411 48 30 48C20.0589 48 12 39.9411 12 30C12 20.0589 20.0589 12 30 12C32.3745 12 34.6417 12.4598 36.7173 13.2952C37.0105 12.6757 37.386 12.1029 37.8298 11.5908Z" fill="#1B1B1C"/>
</svg>
