<svg width="60" height="61" viewBox="0 0 60 61" fill="none" xmlns="http://www.w3.org/2000/svg">
<path d="M6.68462 17.0389L30 3.57772L53.3154 17.0389V43.9611L30 57.4223L6.68462 43.9611V17.0389Z" stroke="black" stroke-width="1.86667"/>
<path d="M28.8163 39.4262L33.557 21.7337L32.1961 21.369L27.4554 39.0616L28.8163 39.4262Z" fill="#1B1B1C"/>
<path d="M22.9902 21.4441L23.9864 22.4435L16.007 30.3976L23.9864 38.3518L22.9902 39.3512L14.0081 30.3976L22.9902 21.4441Z" fill="#1B1B1C"/>
<path d="M37.3178 21.4441L36.3215 22.4435L44.301 30.3976L36.3215 38.3518L37.3178 39.3512L46.2999 30.3976L37.3178 21.4441Z" fill="#1B1B1C"/>
<path d="M28.8163 39.4262L33.557 21.7337L32.1961 21.369L27.4554 39.0616L28.8163 39.4262Z" stroke="black" stroke-width="1.40897"/>
<path d="M22.9902 21.4441L23.9864 22.4435L16.007 30.3976L23.9864 38.3518L22.9902 39.3512L14.0081 30.3976L22.9902 21.4441Z" stroke="black" stroke-width="1.40897"/>
<path d="M37.3178 21.4441L36.3215 22.4435L44.301 30.3976L36.3215 38.3518L37.3178 39.3512L46.2999 30.3976L37.3178 21.4441Z" stroke="black" stroke-width="1.40897"/>
<rect x="27" y="1.5" width="6" height="6" fill="black"/>
<rect x="27" y="53.5" width="6" height="6" fill="black"/>
<rect x="51" y="13.5" width="6" height="6" fill="black"/>
<rect x="51" y="40.5" width="6" height="6" fill="black"/>
<rect x="3" y="40.5" width="6" height="6" fill="black"/>
<rect x="3" y="13.5" width="6" height="6" fill="black"/>
</svg>
