<svg width="14" height="10" viewBox="0 0 14 10" fill="none" xmlns="http://www.w3.org/2000/svg">
<path d="M8.86094 0.673433C8.62188 0.907808 8.62188 1.29687 8.85625 1.53593L11.7016 4.39062H0.859383C0.52657 4.39062 0.254695 4.6625 0.254695 5C0.254695 5.3375 0.52657 5.60937 0.859383 5.60937H11.7016L8.85156 8.46406C8.61719 8.70312 8.62188 9.0875 8.85625 9.32656C9.09531 9.56093 9.475 9.56093 9.71406 9.32187L13.5766 5.43125C13.6281 5.375 13.6703 5.31406 13.7031 5.23906C13.7359 5.16406 13.75 5.08437 13.75 5.00468C13.75 4.84531 13.6891 4.69531 13.5766 4.57812L9.71406 0.687496C9.48438 0.443746 9.1 0.439058 8.86094 0.673433Z" fill="#1B1B1C"/>
</svg>
