<svg width="210" height="76" viewBox="0 0 210 76" fill="none" xmlns="http://www.w3.org/2000/svg">
<g opacity="0.64">
<path d="M93.0286 59.1577C91.7463 59.1577 90.5922 59.0081 89.5664 58.7089C88.5406 58.3669 87.6643 57.9823 86.9377 57.5548C86.0828 57.0847 85.3348 56.5504 84.6937 55.952L83.4114 58.8371H77V18.4452H85.6554V31.5886C86.2111 31.1184 86.8736 30.691 87.643 30.3063C88.2841 29.9643 89.0535 29.6651 89.9511 29.4087C90.8914 29.1522 91.9172 29.024 93.0286 29.024C94.8665 29.024 96.619 29.4087 98.2859 30.1781C99.9529 30.9047 101.406 31.9519 102.646 33.3197C103.928 34.6447 104.932 36.2262 105.659 38.0641C106.428 39.902 106.813 41.911 106.813 44.0908C106.813 46.2707 106.428 48.2796 105.659 50.1176C104.932 51.9555 103.928 53.5584 102.646 54.9261C101.406 56.2512 99.9529 57.2984 98.2859 58.0677C96.619 58.7944 94.8665 59.1577 93.0286 59.1577ZM98.1577 44.0908C98.1577 41.9964 97.5379 40.3081 96.2984 39.0258C95.0588 37.7008 93.5415 37.0383 91.7463 37.0383C89.9511 37.0383 88.4337 37.7008 87.1942 39.0258C85.9546 40.3081 85.3348 41.9964 85.3348 44.0908C85.3348 46.1852 85.9546 47.8949 87.1942 49.22C88.4337 50.5023 89.9511 51.1434 91.7463 51.1434C93.5415 51.1434 95.0588 50.5023 96.2984 49.22C97.5379 47.8949 98.1577 46.1852 98.1577 44.0908Z" fill="#6F747E"/>
<path d="M120.913 58.8371H112.258V29.3446H120.913V58.8371ZM111.937 21.3303C111.937 20.048 112.407 18.9367 113.348 17.9964C114.331 17.0133 115.464 16.5217 116.746 16.5217C118.028 16.5217 119.139 17.0133 120.08 17.9964C121.063 18.9367 121.554 20.048 121.554 21.3303C121.554 22.6126 121.063 23.7453 120.08 24.7283C119.139 25.6687 118.028 26.1389 116.746 26.1389C115.464 26.1389 114.331 25.6687 113.348 24.7283C112.407 23.7453 111.937 22.6126 111.937 21.3303Z" fill="#6F747E"/>
<path d="M136.621 58.8371H127.966V18.4452H136.621V58.8371Z" fill="#6F747E"/>
<path d="M151.711 58.8371H143.055V18.4452H151.711V58.8371Z" fill="#6F747E"/>
<path d="M185.393 50.1817C185.008 51.3785 184.431 52.5325 183.662 53.6439C182.893 54.7552 181.931 55.7596 180.777 56.6572C179.623 57.5121 178.276 58.196 176.738 58.7089C175.242 59.2218 173.532 59.4782 171.609 59.4782C169.6 59.4782 167.698 59.0936 165.902 58.3242C164.15 57.5121 162.59 56.4221 161.222 55.0544C159.897 53.6439 158.828 52.0196 158.016 50.1817C157.247 48.301 156.862 46.2707 156.862 44.0908C156.862 41.911 157.247 39.902 158.016 38.0641C158.828 36.1834 159.918 34.5592 161.286 33.1914C162.654 31.7809 164.235 30.691 166.031 29.9216C167.869 29.1095 169.835 28.7034 171.929 28.7034C173.938 28.7034 175.819 29.0667 177.571 29.7934C179.324 30.52 180.841 31.5672 182.123 32.935C183.448 34.26 184.474 35.8842 185.201 37.8076C185.97 39.6883 186.355 41.7827 186.355 44.0908C186.355 44.4328 186.333 44.7747 186.291 45.1167C186.248 45.4159 186.205 45.7151 186.162 46.0143C186.12 46.3562 186.077 46.6768 186.034 46.976H165.838C166.18 48.0873 166.864 49.1131 167.89 50.0535C168.958 50.9938 170.305 51.464 171.929 51.464C172.741 51.464 173.425 51.3785 173.981 51.2075C174.579 50.9938 175.049 50.7587 175.391 50.5023C175.819 50.2458 176.161 49.9252 176.417 49.5405L185.393 50.1817ZM171.929 36.7177C170.305 36.7177 168.958 37.2092 167.89 38.1923C166.864 39.1327 166.18 40.244 165.838 41.5263H178.02C177.678 40.244 176.973 39.1327 175.904 38.1923C174.878 37.2092 173.553 36.7177 171.929 36.7177Z" fill="#6F747E"/>
<path d="M205.887 29.024C206.272 29.024 206.614 29.0454 206.913 29.0881C207.255 29.1309 207.533 29.1736 207.746 29.2163C208.003 29.2591 208.238 29.3018 208.452 29.3446V38.3206C208.195 38.2351 207.896 38.1282 207.554 38C207.255 37.9145 206.913 37.8504 206.528 37.8076C206.144 37.7222 205.716 37.6794 205.246 37.6794C203.622 37.6794 202.297 38.2137 201.271 39.2823C200.288 40.3508 199.796 41.8468 199.796 43.7703V58.8371H191.141V29.3446H197.552L198.835 32.5503C199.347 31.9091 199.967 31.3321 200.694 30.8192C201.292 30.349 202.019 29.943 202.874 29.601C203.771 29.2163 204.776 29.024 205.887 29.024Z" fill="#6F747E"/>
</g>
<path fill-rule="evenodd" clip-rule="evenodd" d="M26.0212 47.1111V61.0113L34.5431 56.2602L41.5278 61.0113L48.4879 56.2602L57.0098 61.0113V29.2199L26.0212 47.1111Z" fill="#01DDF4"/>
<path fill-rule="evenodd" clip-rule="evenodd" d="M51.0723 28.9205L20.0837 46.8118V16.5381C20.0837 15.6823 20.7774 14.9886 21.6332 14.9886H49.5228C50.3786 14.9886 51.0723 15.6823 51.0723 16.5381V28.9205Z" fill="#4464EC"/>
</svg>
