<svg width="120" height="32" viewBox="0 0 120 32" fill="none" xmlns="http://www.w3.org/2000/svg">
<path d="M23.7249 7.84313C23.4945 8.14088 23.2314 8.41213 22.9405 8.65186C22.6873 8.85113 22.3288 8.95004 21.8634 8.95004C21.4185 8.95004 21.0117 8.84095 20.6429 8.62131C20.2495 8.37503 19.8519 8.13548 19.4502 7.90277C18.955 7.59982 18.4292 7.34924 17.8815 7.15513C17.28 6.93549 16.5337 6.82495 15.6424 6.82495C14.5376 6.82495 13.579 7.0344 12.7639 7.45331C11.9628 7.87776 11.2824 8.49609 10.7854 9.25113C10.2615 10.0293 9.87366 10.9879 9.62195 12.1253C9.37024 13.2424 9.24439 14.5108 9.24439 15.9275C9.24439 18.9006 9.7961 21.1857 10.901 22.7813C12.0263 24.3784 13.5673 25.177 15.5254 25.177C16.5717 25.177 17.3941 25.046 17.9956 24.7871C18.5503 24.5457 19.0769 24.2448 19.5659 23.8897L20.7293 22.9617C21.0966 22.6824 21.5532 22.5428 22.0946 22.5428C22.8117 22.5428 23.3546 22.8119 23.7234 23.35L26.3415 26.6722C25.4107 27.769 24.4317 28.6679 23.4044 29.366C22.415 30.0252 21.3517 30.5675 20.2361 30.982C19.1693 31.3617 18.0937 31.622 17.0093 31.7602C15.9234 31.9202 14.8668 32.0002 13.8395 32.0002C12.0201 32.0051 10.219 31.6388 8.5478 30.9239C6.87396 30.2005 5.36914 29.1401 4.12829 27.8097C2.86976 26.4322 1.86 24.7464 1.10488 22.7508C0.36878 20.7551 0 18.4802 0 15.926C0 13.6904 0.320488 11.606 0.96 9.66858C1.61854 7.71368 2.57854 6.0264 3.83854 4.60967C5.11756 3.17258 6.68781 2.04531 8.54634 1.22786C10.4283 0.407492 12.6 0.000218712 15.06 0.000218712C17.4249 0.000218712 19.5 0.390037 21.2824 1.16822C23.0663 1.9464 24.6746 3.08386 26.1088 4.58058L23.7249 7.84313ZM30.7317 32.0002V0.486037H36.4098C36.9834 0.486037 37.4561 0.616946 37.8307 0.881674C38.2259 1.14495 38.501 1.54058 38.659 2.06713L39.1917 3.88967C39.7829 3.3224 40.3946 2.79586 41.0254 2.31004C41.6561 1.82422 42.3278 1.4184 43.0376 1.09404C43.7837 0.744602 44.5672 0.480135 45.3732 0.305673C46.2749 0.0964826 47.1984 -0.00604667 48.1244 0.000218712C49.8015 0.000218712 51.2795 0.304219 52.5615 0.912219C53.8639 1.49986 54.9571 2.3304 55.8454 3.40386C56.7322 4.45695 57.4024 5.72386 57.8561 7.20313C58.3098 8.66058 58.5366 10.2519 58.5366 11.974V32.0002H49.3668V11.974C49.3668 10.4337 49.0215 9.23949 48.3322 8.38713C47.6415 7.51586 46.6259 7.08095 45.2854 7.08095C44.2785 7.08095 43.3332 7.30349 42.4463 7.75004C41.517 8.22462 40.6601 8.82797 39.9015 9.54204V32.0002H30.7317ZM81.7405 30.5457H73.3815L61.4634 0.000218712H69.1112C69.7639 0.000218712 70.3083 0.15731 70.7429 0.471492C71.1966 0.766764 71.5039 1.13913 71.662 1.59149L75.9307 15.2875C76.2673 16.4075 76.582 17.497 76.879 18.5573C77.1951 19.6177 77.4615 20.678 77.6795 21.7384C77.8976 20.678 78.1624 19.6177 78.48 18.5573C78.7961 17.497 79.1327 16.4075 79.4883 15.2875L83.9342 1.59149C84.0922 1.13913 84.3893 0.766764 84.8239 0.471492C85.2732 0.152634 85.8144 -0.0127356 86.3663 0.000218712H93.6585L81.7405 30.5457ZM117.66 7.27295C117.414 7.65404 117.148 7.92313 116.86 8.08313C116.593 8.24313 116.245 8.32168 115.813 8.32168C115.361 8.32168 114.909 8.23149 114.458 8.05258C113.968 7.83679 113.475 7.62732 112.98 7.42422C112.468 7.20458 111.882 7.00531 111.224 6.82495C110.494 6.61534 109.737 6.51437 108.978 6.52531C107.766 6.52531 106.832 6.75513 106.175 7.21477C105.539 7.65404 105.221 8.27222 105.221 9.07077C105.221 9.64968 105.426 10.1282 105.836 10.5079C106.267 10.886 106.832 11.2249 107.53 11.526C108.228 11.8039 109.019 12.0744 109.901 12.3333C110.783 12.5922 111.686 12.8817 112.61 13.2017C113.535 13.5217 114.438 13.8999 115.32 14.3391C116.186 14.7466 116.985 15.2811 117.691 15.9246C118.389 16.5442 118.943 17.302 119.353 18.201C119.785 19.0984 120 20.1762 120 21.433C120 22.9704 119.713 24.3857 119.137 25.6846C118.556 26.9905 117.67 28.1399 116.552 29.0373C115.422 29.974 114.016 30.7028 112.333 31.222C110.671 31.7413 108.751 32.0002 106.576 32.0002C105.487 32.0002 104.4 31.8999 103.313 31.7006C102.238 31.5047 101.178 31.235 100.14 30.8933C99.1748 30.5709 98.238 30.17 97.339 29.6948C96.5479 29.2648 95.8047 28.7528 95.122 28.1675L97.339 24.7566C97.6054 24.3566 97.9244 24.0482 98.2932 23.8286C98.6634 23.5886 99.1449 23.4693 99.7405 23.4693C100.295 23.4693 100.787 23.5886 101.219 23.8286C101.669 24.0671 102.152 24.3275 102.666 24.6068C103.178 24.886 103.774 25.145 104.451 25.385C105.149 25.6235 106.021 25.7442 107.068 25.7442C107.807 25.7442 108.433 25.6744 108.947 25.5348C109.459 25.3748 109.87 25.1653 110.178 24.905C110.485 24.646 110.712 24.3566 110.855 24.038C110.999 23.718 111.072 23.3893 111.072 23.049C111.072 22.4308 110.855 21.9217 110.425 21.5231C109.993 21.1246 109.43 20.7842 108.732 20.505C107.952 20.1782 107.148 19.9084 106.329 19.6977C105.419 19.4294 104.516 19.1399 103.62 18.8293C102.697 18.5093 101.783 18.1311 100.879 17.6919C100.009 17.2418 99.21 16.667 98.5083 15.9857C97.7867 15.2515 97.2121 14.3877 96.8151 13.4402C96.3849 12.4424 96.1683 11.2351 96.1683 9.8184C96.1683 8.50204 96.4258 7.25404 96.938 6.07731C97.4818 4.86647 98.2919 3.79233 99.3088 2.93404C100.357 2.03513 101.669 1.32676 103.25 0.808946C104.83 0.270764 106.679 0.000218712 108.793 0.000218712C109.942 0.000218712 111.05 0.100582 112.118 0.299855C113.205 0.499128 114.222 0.779855 115.166 1.13767C116.071 1.47706 116.937 1.90845 117.752 2.42495C118.532 2.90495 119.22 3.43295 119.816 4.0104L117.659 7.27586L117.66 7.27295Z" fill="#3568EB"/>
</svg>
