<svg width="70" height="64" viewBox="0 0 70 64" fill="none" xmlns="http://www.w3.org/2000/svg">
<ellipse cx="34.9553" cy="29.7429" rx="7.279" ry="7.33498" fill="#0077FF"/>
<path d="M30.7946 56.1008C30.7946 56.1008 62.0707 53.5214 62.1503 35.063C63.4302 14.2669 36.5539 8.30218 25.0357 19.8286C19.5164 25.5515 17.5165 36.3524 29.4348 42.801C15.758 42.801 10.7339 31.9711 12.4783 23.6975C13.7903 17.4743 19.3429 11.7473 28.2362 8.62463C65.6711 -2.98239 89.1526 40.6861 49.1921 55.2947C50.7082 58.7905 53.5914 64 53.5914 64L30.7946 56.1008Z" fill="#0077FF"/>
<path d="M35.0352 5.15867C36.4488 5.15867 37.5948 4.00388 37.5948 2.57933C37.5948 1.15479 36.4488 0 35.0352 0C33.6216 0 32.4756 1.15479 32.4756 2.57933C32.4756 2.62778 32.4769 2.67592 32.4795 2.7237C20.4292 2.5061 6.51497 8.37663 1.56973 20.151C-5.88315 37.8958 14.142 59.426 41.7639 50.8615C50.6572 47.7389 56.2098 42.0119 57.5219 35.7886C59.2662 27.5151 54.2422 16.6851 40.5653 16.6851C52.4836 23.1338 50.4837 33.9347 44.9645 39.6576C33.4462 51.184 6.5699 45.2193 7.8498 24.4231C7.90698 11.1773 24.0291 6.10844 33.1301 4.30193C33.5987 4.82783 34.2786 5.15867 35.0352 5.15867Z" fill="#0077FF"/>
</svg>
